# xmcd
#
# Track frame offsets: 
#        150
#        16048
#        31316
#        46436
#        64266
#        78884
#        95920
#        109760
#        125933
#        142811
#        159758
#        181555
#        207990
#        225349
#        247785
#
# Disc length: 3437 seconds
#
# Revision: 0
# Processed by: cddbd v1.5.2PL0 Copyright (c) Steve Scherf et al.
# Submitted via: ExactAudioCopyFreeDBPlugin 1.0
#
DISCID=b40d6b0f
DTITLE=Rea Garvey - Pride
DYEAR=2014
DGENRE=Pop
TTITLE0=It's a good life
TTITLE1=Can't say no
TTITLE2=We all fall down
TTITLE3=Catch me when I fall
TTITLE4=The night goes on
TTITLE5=Oh my love
TTITLE6=The rain came falling from her eyes
TTITLE7=Candlelight
TTITLE8=Trouble
TTITLE9=March on
TTITLE10=All that matters
TTITLE11=Forgiveness
TTITLE12=Bow before you
TTITLE13=Soldier's Song (London Demo)
TTITLE14=As you go (Rea Acoustic)
EXTD=
EXTT0=
EXTT1=
EXTT2=
EXTT3=
EXTT4=
EXTT5=
EXTT6=
EXTT7=
EXTT8=
EXTT9=
EXTT10=
EXTT11=
EXTT12=
EXTT13=
EXTT14=
PLAYORDER=
